<svg aria-hidden="true" style="position: absolute; width: 0; height: 0; overflow: hidden;" version="1.1" xmlns="http://www.w3.org/2000/svg" xmlns:xlink="http://www.w3.org/1999/xlink">
<defs>
<symbol id="icon-burger" viewBox="0 0 32 32">
<title>burger</title>
<path d="M6.4 11.733v-2.133h19.2v2.133h-19.2zM6.4 17.067h19.2v-2.133h-19.2v2.133zM6.4 22.4h19.2v-2.133h-19.2v2.133z"></path>
</symbol>
<symbol id="icon-close" viewBox="0 0 32 32">
<title>close</title>
<path d="M32 3.223l-3.223-3.223-12.777 12.777-12.777-12.777-3.223 3.223 12.777 12.777-12.777 12.777 3.223 3.223 12.777-12.777 12.777 12.777 3.223-3.223-12.777-12.777 12.777-12.777z"></path>
</symbol>
<symbol id="icon-buy" viewBox="0 0 22 32">
<title>buy</title>
<path fill="none" stroke="#d41443" style="stroke: var(--color1, #d41443)" stroke-linejoin="round" stroke-linecap="round" stroke-miterlimit="4" stroke-width="6.4" d="M3.321 3.2l14.974 12.8-14.974 12.8"></path>
</symbol>
<symbol id="icon-Group1" viewBox="0 0 31 32">
<title>Group1</title>
<path fill="#ff6b09" style="fill: var(--color1, #ff6b09)" d="M7.046 26.006c2.185 0 14.824 0 17.006 0 0.084-1.939-0.055-5.157-1.247-6.689l-0.043-0.055-2.606-1.308c0.057-0.191 0.084-0.366 0.096-0.494 0.013-0.154-0.008-0.299-0.063-0.43-0.43-1.029-1.339-1.57-1.84-1.8 0.152-0.307 0.251-0.637 0.298-0.974 0.283-0.080 0.511-0.304 0.586-0.604l0.304-1.236c0.054-0.218 0.020-0.444-0.096-0.636-0.050-0.083-0.114-0.153-0.187-0.212 0.858-1.948-0.579-3.784-0.657-3.881-1.555-1.682-3.52-1.367-3.624-1.349-2.836 0.594-3.93 2.767-3.312 5.316-0.183 0.203-0.26 0.485-0.192 0.762l0.306 1.237c0.074 0.297 0.3 0.521 0.581 0.602 0.087 0.617 0.348 1.175 0.732 1.625v0.979c-4.069 2.084-1.491 0.754-4.752 2.404-0.006 0.031-1.53 1.65-1.304 6.45l0.014 0.293zM23.461 25.39h-2.799v-1.176l1.851-4.238c0.927 1.539 0.962 4.478 0.948 5.413zM19.641 17.407c-0.108 1.241-0.788 0.866-1.208 1.822-0.33-0.363-0.43-0.799-0.341-1.265 0.16-0.856-0.362-1.11-0.233-2.010l0.020-0.021v-0.003c0.011-0.012 0.114-0.135 0.144-0.174 1.107 0.483 1.64 1.381 1.619 1.651zM13.701 16.432c0.514 0.357 1.135 0.567 1.802 0.567 0.629 0 1.226-0.183 1.737-0.52 0.071 0.707 0.347 0.849 0.249 1.369-0.018 0.097-0.028 0.192-0.034 0.285l-1.906 2.148-2.437-2.747 0.588-0.307v-0.796zM12.934 13.803v-1.191c0-0.439 0-2.179 0-2.093 0.297-0.549 0.701-0.947 1.204-1.185 1.346 0.762 2.896 1.898 3.935 3.042-0.001 1.457 0.004 1.461-0.006 1.58l-0.001 0.008c-0.081 1.323-1.169 2.419-2.564 2.419-1.356 0-2.482-1.065-2.563-2.433-0.004-0.049-0.005-0.098-0.005-0.148zM12.555 17.833l2.994 3.376 2.010-2.266c0.046 0.132 0.11 0.257 0.184 0.378l-2.194 2.744-3.272-4.093 0.278-0.14zM18.686 13.307v-0.951c0.027-0.031 0.256-0.293 0.229-0.262 0.013 0.482 0.065-0.087-0.229 1.213zM15.087 6.942c0.122 0.008 1.756-0.249 3.047 1.146 0.051 0.064 1.102 1.418 0.68 2.9-0.145-0.659-0.397-1.504-0.795-1.907l-0.435 0.434c0.393 0.398 0.651 1.611 0.75 2.24-1.803-1.887-4.13-3.082-4.162-3.102-0.117 0.073-1.101 0.26-1.816 1.649l-0.034 0.066v1.021c-0.031 0-0.121 0.001-0.090 0.001-0.454-2.193 0.416-3.936 2.855-4.447zM12.167 12.023l0.155 0.627v0.659l-0.257-1.041c-0.038-0.155 0.077-0.214 0.102-0.245zM11.716 18.254l3.833 4.794 2.594-3.244c0.282 0.253 0.418 0.288 1.016 0.596l-0.202-0.684c-0.051-0.174 0.151-0.452 0.274-0.58 0.273-0.148 0.501-0.36 0.671-0.621l2.116 1.063-1.969 4.508v1.305h-9v-1.305l-1.97-4.507 2.637-1.324zM8.584 19.978l1.851 4.237v1.176h-2.799c-0.014-0.935 0.021-3.872 0.947-5.412z"></path>
<path fill="none" stroke="#ff6b09" style="stroke: var(--color1, #ff6b09)" stroke-linejoin="miter" stroke-linecap="butt" stroke-miterlimit="4" stroke-width="1.0159" d="M30.387 4.945v-4.183h-29.879v30.476h29.879v-4.183"></path>
</symbol>
<symbol id="icon-Group2" viewBox="0 0 31 32">
<title>Group2</title>
<path fill="#ff6b09" style="fill: var(--color1, #ff6b09)" d="M24.717 5.25h-10.247c-0.667 0-1.21 0.543-1.21 1.21v4.242l-7.613 3.195c-0.086 0.036-0.145 0.117-0.151 0.211s0.040 0.182 0.12 0.23l0.971 0.581v6.192c-0.497 0.113-0.869 0.558-0.869 1.089v0.597c0 0.137 0.111 0.248 0.248 0.248h1.739c0.137 0 0.248-0.111 0.248-0.248v-0.597c0-0.531-0.373-0.975-0.87-1.089v-5.896l0.768 0.459c-0.024 0.177-0.003-0.309-0.011 2.883 0 1.049 2.687 1.611 5.421 1.643v4.832c0 0.25 0.076 0.482 0.207 0.674 0.217 0.322 0.585 0.534 1.002 0.534h10.247c0.666 0 1.209-0.542 1.209-1.209 0 0.033-0.001-1.024 0-18.573 0-0.658-0.544-1.21-1.208-1.21zM7.456 22.201v0.349h-1.243v-0.349c0-0.344 0.278-0.623 0.62-0.623 0.343 0 0.623 0.28 0.623 0.623zM24.717 25.745h-10.247c-0.246 0-0.463-0.125-0.592-0.313-0.077-0.114-0.122-0.251-0.122-0.398v-1.675h11.672v1.676c0 0.388-0.324 0.711-0.711 0.711zM25.428 22.862h-11.672v-2.659c1.335-0.015 5.424-0.309 5.424-1.645-0.001-2.005 0.004-2.818-0.006-2.887l2.226-1.334c0.080-0.048 0.126-0.137 0.12-0.23s-0.065-0.175-0.151-0.211l-7.613-3.195v-2.071h11.672v14.232zM13.508 16.912c-1.375 0-4.023 0.178-5.173 0.929 0.007-2.297-0.080-2.148 0.203-2.343 0.715-0.526 2.758-0.894 4.97-0.894 0.965 0 5.176 0.265 5.176 1.157v2.080c-1.161-0.758-3.795-0.929-5.176-0.929zM13.756 6.46c0-0.393 0.32-0.713 0.713-0.713h10.247c0.393 0 0.712 0.324 0.712 0.713v1.675h-11.672v-1.675zM13.508 11.135l7.217 3.029-1.788 1.070c-0.951-0.943-4.096-1.126-5.429-1.126-1.335 0-4.48 0.183-5.429 1.126l-1.789-1.070 7.218-3.029zM8.335 18.558c0-0.401 1.777-1.15 5.173-1.15 3.399 0 5.176 0.749 5.176 1.15s-1.778 1.15-5.176 1.15c-3.396 0-5.173-0.749-5.173-1.15z"></path>
<path fill="#ff6b09" style="fill: var(--color1, #ff6b09)" d="M19.593 23.732c-0.452 0-0.82 0.368-0.82 0.82s0.368 0.82 0.82 0.82c0.452 0 0.82-0.368 0.82-0.82s-0.368-0.82-0.82-0.82zM19.593 24.877c-0.179 0-0.324-0.146-0.324-0.324s0.145-0.324 0.324-0.324c0.179 0 0.324 0.145 0.324 0.324s-0.145 0.324-0.324 0.324z"></path>
<path fill="#ff6b09" style="fill: var(--color1, #ff6b09)" d="M20.538 6.693h-1.891v0.496h1.891v-0.496z"></path>
<path fill="none" stroke="#ff6b09" style="stroke: var(--color1, #ff6b09)" stroke-linejoin="miter" stroke-linecap="butt" stroke-miterlimit="4" stroke-width="1.0159" d="M30.387 4.945v-4.183h-29.879v30.476h29.879v-4.183"></path>
</symbol>
<symbol id="icon-Group3" viewBox="0 0 31 32">
<title>Group3</title>
<path fill="#ff6b09" style="fill: var(--color1, #ff6b09)" d="M6.947 14.566c0 0.227-0.344 0.227-0.344 0 0-4.818 3.907-8.725 8.725-8.725 4.82 0 8.725 3.907 8.725 8.725 0 0.227-0.342 0.227-0.342 0 0-3.256-5.351-3.258-5.351 0 0 0.227-0.352 0.227-0.352 0 0-3.248-5.36-3.248-5.36 0 0 0.227-0.352 0.227-0.352 0 0-3.242-5.349-3.265-5.349 0zM12.327 13.302c0.093-1.874 0.387-3.555 0.816-4.838 0.342-1.020 0.774-1.794 1.265-2.229-3.679 0.402-6.657 3.191-7.322 6.808 1.267-1.827 4.192-1.681 5.242 0.26zM17.981 13.217c-0.095-1.802-0.381-3.415-0.793-4.645-1.063-3.182-2.657-3.182-3.72 0-0.412 1.23-0.696 2.842-0.793 4.645 1.143-1.942 4.163-1.942 5.306 0zM23.571 13.042c-0.663-3.617-3.642-6.406-7.322-6.808 0.492 0.435 0.923 1.209 1.265 2.229 0.428 1.283 0.723 2.964 0.816 4.838 1.057-1.951 3.99-2.066 5.242-0.26z"></path>
<path fill="#ff6b09" style="fill: var(--color1, #ff6b09)" d="M14.183 18.559v-1.772c-0.319 0.212-0.571 0.54-0.571 0.939 0 0.389 0.255 0.647 0.571 0.832zM14.527 19.109c-0.612-0.28-1.256-0.608-1.256-1.382 0-0.799 0.608-1.199 1.256-1.498v2.88z"></path>
<path fill="#ff6b09" style="fill: var(--color1, #ff6b09)" d="M16.474 21.232v1.792c0.323-0.214 0.577-0.544 0.577-0.943 0-0.393-0.26-0.659-0.577-0.849zM16.132 20.68c0.614 0.284 1.263 0.622 1.263 1.401 0 0.801-0.612 1.201-1.263 1.497v-2.898z"></path>
<path fill="#ff6b09" style="fill: var(--color1, #ff6b09)" d="M16.474 14.77c1.409 0.325 2.857 1.38 2.857 2.956 0 1.349-2.28 1.3-2.28 0 0-0.402-0.253-0.731-0.577-0.943v2.521c1.304 0.426 2.861 1.191 2.861 2.777 0 1.578-1.448 2.63-2.861 2.954-0.006 1.502-2.286 1.5-2.29-0.002-0.803-0.185-1.502-0.56-2.006-1.057-0.529-0.523-0.842-1.18-0.842-1.895 0-1.329 2.278-1.329 2.278 0 0 0.398 0.251 0.725 0.571 0.937v-2.519c-1.294-0.418-2.859-1.205-2.859-2.777 0-1.578 1.448-2.63 2.859-2.954 0.006-1.502 2.286-1.5 2.29 0.002zM14.527 14.774v0.274c-1.341 0.266-2.861 1.125-2.861 2.674 0 1.489 1.668 2.157 2.861 2.525v3.329c-0.645-0.295-1.256-0.692-1.256-1.495 0-0.878-1.594-0.878-1.594 0 0 0.62 0.276 1.193 0.742 1.65 0.591 0.585 1.308 0.863 2.109 1.022v0.276c0 1.057 1.605 1.057 1.605 0v-0.274c1.345-0.268 2.859-1.127 2.859-2.674 0-1.504-1.664-2.15-2.859-2.527v-3.327c0.647 0.295 1.263 0.692 1.263 1.5 0 0.855 1.592 0.89 1.592 0 0-1.547-1.512-2.408-2.855-2.676v-0.276c0-1.057-1.605-1.057-1.605 0z"></path>
<path fill="none" stroke="#ff6b09" style="stroke: var(--color1, #ff6b09)" stroke-linejoin="miter" stroke-linecap="butt" stroke-miterlimit="4" stroke-width="1.0159" d="M30.387 4.945v-4.183h-29.879v30.476h29.879v-4.183"></path>
</symbol>
<symbol id="icon-noun_Audio-Book" viewBox="0 0 37 32">
<title>noun_Audio-Book</title>
<path d="M2.954 29.451h11.853c0.601 1.258 1.858 2.070 3.276 2.070h0.749c1.42 0 2.676-0.812 3.277-2.070h11.86c1.222 0 2.215-1.003 2.215-2.237v-21.434c0-1.233-0.994-2.237-2.215-2.237h-1.196v-0.999c0-0.822-0.663-1.491-1.477-1.491h-25.675c-0.814 0-1.477 0.669-1.477 1.491v0.999h-1.189c-1.222 0-2.215 1.003-2.215 2.237v21.434c0 1.233 0.994 2.237 2.215 2.237zM31.294 24.852h-12.094v-17.325c2.795 0.369 4.963 2.784 4.963 5.705v0.672l-0.175-0.039c-0.19-0.041-0.39-0.007-0.556 0.1s-0.282 0.275-0.324 0.468l-1.175 5.401c-0.087 0.401 0.164 0.799 0.562 0.887l2.541 0.565c0.131 0.028 0.265 0.043 0.398 0.043 0.893 0 1.654-0.617 1.849-1.502l0.68-3.123c0.224-1.026-0.42-2.046-1.439-2.274l-0.884-0.197v-1.001c0-3.745-2.827-6.836-6.44-7.212v-3.475h12.096l-0.001 22.306zM24.391 15.482l1.814 0.403c0.226 0.051 0.365 0.269 0.315 0.497l-0.68 3.123c-0.049 0.226-0.296 0.366-0.492 0.324l-1.816-0.404 0.859-3.943zM5.62 2.545h12.103v3.474c-3.616 0.373-6.447 3.465-6.447 7.213v1.001l-0.886 0.197c-0.493 0.111-0.914 0.407-1.185 0.835-0.272 0.429-0.361 0.94-0.252 1.437l0.679 3.12c0.184 0.873 0.962 1.507 1.85 1.507 0.133 0 0.267-0.015 0.403-0.044l2.53-0.564c0.397-0.089 0.649-0.486 0.562-0.887l-1.175-5.401c-0.042-0.193-0.159-0.362-0.324-0.468s-0.366-0.141-0.557-0.1l-0.169 0.038v-0.671c0-2.924 2.171-5.34 4.97-5.706v17.326h-12.103v-22.306zM12.518 15.483l0.86 3.943-1.806 0.403c-0.222 0.051-0.449-0.098-0.496-0.321l-0.68-3.127c-0.024-0.109-0.005-0.22 0.053-0.312 0.059-0.094 0.152-0.158 0.26-0.183l1.809-0.403zM2.215 5.781c0-0.411 0.331-0.746 0.738-0.746h1.189v19.816c0 0.822 0.663 1.491 1.477 1.491h25.675c0.814 0 1.477-0.669 1.477-1.491v-19.816h1.196c0.407 0 0.738 0.335 0.738 0.746v21.434c0 0.411-0.331 0.746-0.738 0.746h-12.362c-0.325 0-0.611 0.214-0.706 0.527-0.28 0.923-1.112 1.543-2.069 1.543h-0.749c-0.953 0-1.784-0.618-2.072-1.552-0.098-0.309-0.382-0.518-0.703-0.518h-12.354c-0.407 0-0.738-0.335-0.738-0.746v-21.434z"></path>
</symbol>
<symbol id="icon-noun_Female-Student" viewBox="0 0 26 32">
<title>noun_Female-Student</title>
<path d="M-0.101 31.708c3.371 0 22.871 0 26.238 0 0.13-2.989-0.084-7.948-1.924-10.308l-0.066-0.085-4.020-2.016c0.087-0.294 0.13-0.564 0.148-0.762 0.020-0.238-0.013-0.461-0.098-0.663-0.663-1.585-2.067-2.419-2.839-2.775 0.235-0.473 0.387-0.982 0.46-1.501 0.437-0.123 0.788-0.469 0.904-0.93l0.469-1.904c0.083-0.336 0.031-0.684-0.148-0.981-0.077-0.128-0.176-0.235-0.288-0.327 1.323-3.002-0.893-5.832-1.014-5.981-2.4-2.592-5.431-2.107-5.592-2.078-4.375 0.915-6.063 4.264-5.11 8.192-0.282 0.313-0.401 0.748-0.296 1.175l0.472 1.906c0.114 0.458 0.463 0.803 0.897 0.927 0.134 0.951 0.537 1.811 1.129 2.504v1.51c-6.278 3.212-2.3 1.163-7.331 3.705-0.010 0.047-2.361 2.543-2.011 9.94l0.021 0.452zM25.226 30.759h-4.318v-1.812l2.856-6.531c1.431 2.372 1.484 6.902 1.462 8.343zM19.332 18.456c-0.167 1.912-1.216 1.334-1.864 2.807-0.51-0.56-0.663-1.231-0.526-1.95 0.247-1.32-0.559-1.711-0.36-3.098l0.030-0.032v-0.004c0.017-0.019 0.176-0.208 0.222-0.268 1.709 0.744 2.531 2.128 2.498 2.544zM10.167 16.953c0.793 0.549 1.751 0.874 2.78 0.874 0.97 0 1.891-0.282 2.681-0.801 0.109 1.090 0.536 1.308 0.385 2.11-0.028 0.149-0.044 0.296-0.053 0.44l-2.941 3.311-3.759-4.234 0.908-0.473v-1.227zM8.985 12.901v-1.836c0-0.676 0-3.358 0-3.225 0.458-0.846 1.082-1.459 1.857-1.826 2.077 1.174 4.467 2.925 6.071 4.689-0.002 2.245 0.006 2.251-0.009 2.436l-0.001 0.012c-0.125 2.039-1.803 3.729-3.955 3.729-2.092 0-3.829-1.641-3.955-3.749-0.006-0.075-0.008-0.151-0.008-0.228zM8.399 19.112l4.62 5.202 3.102-3.492c0.071 0.204 0.17 0.397 0.284 0.583l-3.386 4.229-5.049-6.307 0.429-0.215zM17.858 12.138v-1.466c0.042-0.048 0.394-0.451 0.353-0.404 0.019 0.742 0.1-0.134-0.353 1.87zM12.305 2.328c0.188 0.012 2.709-0.383 4.701 1.766 0.078 0.098 1.7 2.186 1.049 4.469-0.223-1.016-0.612-2.318-1.226-2.94l-0.672 0.668c0.607 0.614 1.005 2.483 1.157 3.451-2.782-2.908-6.372-4.749-6.421-4.78-0.18 0.112-1.699 0.4-2.802 2.542l-0.053 0.102v1.573c-0.047 0.001-0.186 0.002-0.139 0.002-0.701-3.38 0.641-6.065 4.406-6.853zM7.8 10.158l0.239 0.966v1.015l-0.397-1.604c-0.058-0.239 0.119-0.33 0.158-0.377zM7.104 19.761l5.914 7.389 4.001-4.999c0.435 0.389 0.645 0.444 1.567 0.918l-0.311-1.055c-0.079-0.268 0.234-0.697 0.423-0.895 0.422-0.228 0.773-0.554 1.036-0.956l3.265 1.638-3.038 6.948v2.011h-13.886v-2.011l-3.039-6.947 4.069-2.040zM2.273 22.418l2.857 6.529v1.812h-4.318c-0.022-1.441 0.032-5.968 1.462-8.341z"></path>
</symbol>
<symbol id="icon-noun_Mobile" viewBox="0 0 32 32">
<title>noun_Mobile</title>
<path d="M29.546 0.519h-15.418c-1.004 0-1.82 0.816-1.82 1.818v6.375l-11.454 4.802c-0.13 0.054-0.218 0.177-0.228 0.317s0.059 0.274 0.18 0.346l1.461 0.873v9.306c-0.747 0.17-1.308 0.838-1.308 1.637v0.897c0 0.206 0.167 0.373 0.373 0.373h2.616c0.206 0 0.373-0.167 0.373-0.373v-0.897c0-0.798-0.561-1.465-1.308-1.636v-8.861l1.155 0.691c-0.035 0.266-0.005-0.464-0.016 4.333 0 1.577 4.043 2.421 8.157 2.47v7.263c0 0.375 0.115 0.724 0.312 1.014 0.327 0.483 0.881 0.802 1.508 0.802h15.418c1.003 0 1.818-0.815 1.818-1.816 0 0.050-0.002-1.538 0-27.914 0-0.989-0.819-1.818-1.817-1.818zM3.575 25.995v0.524h-1.87v-0.524c0-0.516 0.418-0.936 0.933-0.936 0.517 0 0.937 0.42 0.937 0.936zM29.546 31.321h-15.418c-0.37 0-0.697-0.187-0.89-0.471-0.116-0.171-0.183-0.377-0.183-0.598v-2.518h17.561v2.518c0 0.584-0.487 1.068-1.070 1.068zM30.616 26.989h-17.562v-3.997c2.008-0.023 8.161-0.465 8.161-2.472-0.002-3.013 0.005-4.235-0.009-4.338l3.35-2.004c0.121-0.072 0.19-0.206 0.18-0.346s-0.098-0.262-0.228-0.317l-11.454-4.802v-3.112h17.562v21.389zM12.681 18.047c-2.069 0-6.053 0.267-7.784 1.396 0.011-3.453-0.12-3.228 0.306-3.521 1.075-0.791 4.15-1.343 7.478-1.343 1.451 0 7.788 0.399 7.788 1.739v3.125c-1.747-1.139-5.71-1.396-7.788-1.396zM13.055 2.338c0-0.591 0.481-1.071 1.072-1.071h15.418c0.592 0 1.070 0.487 1.070 1.071v2.518h-17.561v-2.518zM12.681 9.364l10.859 4.553-2.691 1.608c-1.43-1.417-6.162-1.692-8.168-1.692-2.008 0-6.741 0.276-8.168 1.692l-2.692-1.609 10.86-4.553zM4.898 20.52c0-0.603 2.673-1.729 7.784-1.729 5.113 0 7.788 1.126 7.788 1.729s-2.675 1.729-7.788 1.729c-5.11 0-7.784-1.126-7.784-1.729z"></path>
<path d="M21.837 28.296c-0.68 0-1.234 0.553-1.234 1.232s0.553 1.233 1.234 1.233c0.68 0 1.234-0.553 1.234-1.233s-0.553-1.232-1.234-1.232zM21.837 30.016c-0.269 0-0.488-0.219-0.488-0.488s0.219-0.487 0.488-0.487c0.269 0 0.488 0.218 0.488 0.487s-0.219 0.488-0.488 0.488z"></path>
<path d="M23.259 2.688h-2.846v0.745h2.846v-0.745z"></path>
</symbol>
<symbol id="icon-noun_open-book" viewBox="0 0 45 32">
<title>noun_open-book</title>
<path d="M19.853 5.14h-13.361v0.999h13.361v-0.999z"></path>
<path d="M19.853 8.866h-11.36v0.999h11.36v-0.999z"></path>
<path d="M19.853 12.593h-13.361v0.999h13.361v-0.999z"></path>
<path d="M19.853 16.319h-11.36v0.999h11.36v-0.999z"></path>
<path d="M19.853 20.045h-13.361v0.999h13.361v-0.999z"></path>
<path d="M19.853 23.771h-11.36v0.999h11.36v-0.999z"></path>
<path d="M38.194 5.14h-13.361v0.999h13.361v-0.999z"></path>
<path d="M36.193 8.866h-11.36v0.999h11.36v-0.999z"></path>
<path d="M38.194 12.593h-13.361v0.999h13.361v-0.999z"></path>
<path d="M36.193 16.319h-11.36v0.999h11.36v-0.999z"></path>
<path d="M38.194 20.045h-13.361v0.999h13.361v-0.999z"></path>
<path d="M36.193 23.771h-11.36v0.999h11.36v-0.999z"></path>
<path d="M43.019 4.003h-1.834v-2.752c0-0.276-0.224-0.5-0.5-0.5h-14.953c-1.459 0-2.724 0.788-3.388 1.968-0.664-1.18-1.929-1.968-3.389-1.968h-14.953c-0.276 0-0.5 0.224-0.5 0.5v2.752h-1.834c-0.276 0-0.5 0.224-0.5 0.5v26.822c0 0.276 0.224 0.5 0.5 0.5 5.022 0 36.311 0 41.351 0 0.276 0 0.5-0.224 0.5-0.5v-26.822c0-0.276-0.224-0.5-0.5-0.5zM25.731 1.751h14.453c0 4.475 0 16.261 0 26.762h-15.52c-0.688 0-1.376 0.29-1.821 0.666v-24.55c0-1.595 1.279-2.878 2.888-2.878zM4.502 1.751h14.453c1.564 0 2.83 1.216 2.882 2.768 0.001 0.021 0.003 0.089 0.006 0.11v24.548c-0.444-0.374-1.124-0.664-1.814-0.664h-15.527c0-10.497 0-22.289 0-26.762zM2.168 5.002h1.334v24.011c0 0.276 0.224 0.5 0.5 0.5h16.027c0.762 0 1.499 0.5 1.735 1.312h-19.596v-25.823zM42.518 30.825h-19.596c0.237-0.817 0.967-1.312 1.742-1.312h16.020c0.276 0 0.5-0.224 0.5-0.5v-24.011h1.334v25.823z"></path>
</symbol>
<symbol id="icon-noun_people" viewBox="0 0 32 32">
<title>noun_people</title>
<path d="M1.952 12.894v2.771c0 0.149 0.068 0.289 0.185 0.381 1.896 1.49 4.274 2.311 6.698 2.311 0.725 0 1.451-0.076 2.161-0.219 1.513 0.668 3.123 1.010 4.79 1.010 1.672 0 3.283-0.342 4.791-1.010 3.028 0.611 6.254-0.045 8.858-2.092 0.117-0.092 0.185-0.233 0.185-0.381v-2.771c0-0.407-0.202-0.777-0.563-1.005l-3.788-2.129c0.829-1.050 1.446-2.546 1.553-3.829 0.314-2.208-1.487-4.546-4.080-4.546-1.090 0-2.127 0.448-2.888 1.2-0.026 0.026-0.056 0.048-0.082 0.075-0.023 0.024-0.042 0.053-0.065 0.078-0.015 0.017-0.028 0.035-0.043 0.052-0.741-1.35-2.166-2.184-3.844-2.184-0.163 0-0.323 0.011-0.482 0.027-0.010-0.001-0.018-0.005-0.028-0.005-0.090 0-0.281 0.024-0.383 0.053-0.015 0.004-0.026 0.015-0.040 0.021-1.253 0.253-2.315 1.012-2.951 2.11-0.765-0.891-1.89-1.426-3.114-1.426-3.828 0-5.527 4.513-2.505 8.396l-3.823 2.12c-0.339 0.215-0.542 0.586-0.542 0.992zM20.568 17.072c-0.082 0.040-0.163 0.083-0.246 0.12l-0 0c-0.001 0-0.001 0.001-0.002 0.001-1.423 0.653-2.948 0.984-4.533 0.984-1.581 0-3.106-0.331-4.535-0.985-0.695-0.316-1.368-0.718-2.003-1.195v-2.808c0-0.096 0.046-0.181 0.1-0.216l4.449-2.47c0.554 0.47 1.261 0.814 1.993 0.814 0.706 0 1.468-0.349 2.011-0.825l4.395 2.466c0.081 0.052 0.128 0.136 0.128 0.232v2.808c-0.56 0.42-1.149 0.778-1.757 1.075zM28.559 12.721c0.057 0.036 0.090 0.099 0.090 0.172v2.532c-1.928 1.446-4.249 2.102-6.599 1.937 0.362-0.226 0.756-0.505 1.061-0.744 0.117-0.092 0.186-0.233 0.186-0.382v-3.047c0-0.426-0.214-0.817-0.598-1.063l-2.335-1.311 0.568-0.314c0.689 0.561 1.28 0.728 1.811 0.728 0.649 0 1.332-0.318 1.84-0.743l3.977 2.235zM22.742 2.355c1.352 0 2.54 0.883 2.96 2.096-0.816-0.097-1.614-0.499-2.191-1.117-0.104-0.112-0.253-0.17-0.407-0.152-0.152 0.016-0.287 0.103-0.365 0.234-0.554 0.927-1.462 1.546-2.496 1.722 0-0.001-0-0.002-0-0.003 0.005-0.211-0.008-0.425-0.032-0.639-0.002-0.022-0.005-0.043-0.007-0.065-0.031-0.243-0.105-0.547-0.119-0.596 0.552-0.883 1.576-1.48 2.658-1.48zM20.137 6.128c1.227-0.134 2.337-0.75 3.1-1.724 0.751 0.616 1.705 0.989 2.647 1.034-0.007 1.753-1.441 4.821-3.141 4.821-1.31 0-2.428-1.871-2.846-3.169 0.106-0.334 0.183-0.655 0.24-0.962zM20.235 9.777l-0.868 0.48-0.876-0.492c0.325-0.404 0.623-0.874 0.878-1.383 0.245 0.515 0.539 0.988 0.866 1.395zM18.926 6.931c-0.468 1.396-1.67 3.415-3.134 3.415-1.707 0-3.16-2.803-3.437-4.595 0.074-0.018 2.38 0.124 3.967-1.958 0.806 0.673 1.892 1.119 2.949 1.163 0.013 0.633-0.141 1.376-0.345 1.975zM15.82 1.576c2.723 0 3.241 2.341 3.284 2.39-0.987-0.1-1.888-0.583-2.511-1.248-0.104-0.112-0.256-0.168-0.407-0.151s-0.287 0.104-0.366 0.236c-0.539 0.912-1.385 1.554-2.365 1.828-0.378 0.106-0.786 0.154-1.143 0.15 0.133-1.783 1.564-3.204 3.507-3.204zM12.207 8.373c0.252 0.504 0.551 0.985 0.894 1.407l-0.858 0.476-0.888-0.499c0.337-0.429 0.623-0.909 0.852-1.385zM8.822 2.355c1.102 0 2.111 0.558 2.674 1.481-0.028 0.098-0.104 0.487-0.114 0.536-0.676-0.162-1.297-0.521-1.784-1.040-0.105-0.111-0.253-0.167-0.408-0.151-0.152 0.017-0.287 0.104-0.365 0.235-0.65 1.095-1.842 1.776-3.112 1.776 0.155-1.592 1.487-2.838 3.109-2.838zM5.756 6.161c1.396-0.014 2.714-0.671 3.568-1.757 0.584 0.48 1.277 0.796 2.014 0.94 0.029 0.563 0.175 1.246 0.343 1.75-0.268 0.822-0.783 1.801-1.421 2.452-0.004 0.004-0.009 0.006-0.013 0.010-0.399 0.42-0.968 0.703-1.415 0.703-1.561 0-2.783-2.454-3.076-4.098zM2.924 12.894c0-0.073 0.033-0.136 0.066-0.158l4.032-2.235c0.242 0.201 0.297 0.224 0.346 0.26l-0 0c0.474 0.315 0.909 0.472 1.503 0.472 0.632 0 1.207-0.267 1.713-0.679 0.029-0.022 0.059-0.044 0.086-0.067l0.575 0.323-2.396 1.331c-0.358 0.231-0.572 0.623-0.572 1.048v3.047c0 0.149 0.068 0.29 0.186 0.381 0.31 0.243 0.713 0.527 1.061 0.745-2.385 0.163-4.705-0.517-6.6-1.938v-2.532z"></path>
<path d="M30.621 20.94c-0.598-0.375-1.333-0.414-1.966-0.108l-5.995 2.893c-0.021-1.121-0.937-2.027-2.064-2.027l-3.437 0.001c-1.695-1.472-3.861-2.373-5.83-2.42-1.942-0.046-3.686-0.059-4.499-0.063v-0.98h-6.829v11.269h6.829v-1.349c1.873 1.073 6.797 3.762 9.134 3.762 0.053 0 0.105-0.001 0.155-0.004 4.11-0.23 13.803-7.044 14.443-7.496 0.625-0.363 1.013-1.033 1.013-1.757 0-0.704-0.356-1.347-0.953-1.721zM5.858 28.535h-4.886v-9.329h4.886v9.329zM30.061 23.585c-0.015 0.008-0.029 0.017-0.043 0.027-0.1 0.071-10.071 7.115-13.953 7.333-0.038 0.002-0.077 0.003-0.118 0.003-2.050 0-7.047-2.693-9.117-3.915v-6.846c0.81 0.004 2.544 0.017 4.476 0.062 1.799 0.043 3.797 0.901 5.344 2.295l0.139 0.125 3.808-0.001c0.604 0 1.096 0.491 1.096 1.095s-0.491 1.095-1.096 1.095h-6.996v0.97h6.996c0.671 0 1.261-0.326 1.639-0.821l6.841-3.301c0.336-0.163 0.711-0.143 1.027 0.056s0.498 0.526 0.498 0.898c0 0.383-0.207 0.737-0.541 0.925z"></path>
<path d="M16.273 12.503h-0.972v0.9h0.972v-0.9z"></path>
<path d="M16.273 14.297h-0.972v0.9h0.972v-0.9z"></path>
<path d="M16.273 16.091h-0.972v0.9h0.972v-0.9z"></path>
</symbol>
<symbol id="icon-noun_study-program" viewBox="0 0 31 32">
<title>noun_study-program</title>
<path d="M30.151 4.961c0-0.001-0.001-0.001-0.001-0.002-0.007-0.016-0.015-0.031-0.024-0.045-0.001-0.001-0.002-0.002-0.002-0.003-0.010-0.015-0.021-0.029-0.034-0.042l-4.806-4.806c-0.013-0.013-0.026-0.023-0.041-0.033-0.003-0.002-0.006-0.004-0.009-0.006-0.012-0.007-0.024-0.014-0.036-0.019-0.004-0.002-0.007-0.003-0.011-0.005-0.031-0.013-0.065-0.019-0.099-0.020-0.002 0-0.004-0-0.005-0h-21.172c-0.157 0-0.284 0.127-0.284 0.284v29.311c0 0.019 0.002 0.037 0.006 0.056 0.002 0.008 0.005 0.015 0.007 0.023 0.003 0.010 0.006 0.020 0.009 0.030 0.004 0.009 0.009 0.017 0.014 0.026 0.004 0.007 0.008 0.016 0.013 0.023 0.010 0.014 0.021 0.028 0.033 0.040 0.001 0.001 0.001 0.002 0.003 0.003l2.165 2.164c0.111 0.111 0.29 0.111 0.402 0l1.965-1.963 1.964 1.963c0.055 0.056 0.128 0.083 0.201 0.083s0.145-0.027 0.201-0.083l1.964-1.963 1.964 1.963c0.111 0.111 0.291 0.111 0.402 0l1.964-1.963 1.963 1.963c0.111 0.111 0.291 0.111 0.401 0l1.965-1.963 1.963 1.963c0.055 0.056 0.128 0.083 0.201 0.083s0.145-0.027 0.201-0.083l1.963-1.963 1.965 1.963c0.111 0.111 0.291 0.111 0.401 0l2.165-2.164c0.004-0.004 0.007-0.009 0.011-0.014 0.008-0.009 0.017-0.019 0.024-0.029 0.007-0.009 0.011-0.020 0.016-0.030 0.003-0.007 0.007-0.012 0.009-0.019 0.006-0.013 0.009-0.026 0.012-0.039 0.001-0.005 0.003-0.009 0.004-0.013 0.004-0.020 0.006-0.038 0.006-0.058v-24.503c-0.001-0.037-0.008-0.074-0.023-0.109zM25.367 0.949l3.836 3.835h-3.836v-3.835zM29.604 29.456l-1.88 1.88-1.965-1.963c-0.111-0.111-0.29-0.111-0.401 0l-1.963 1.963-1.963-1.963c-0.111-0.111-0.291-0.111-0.402 0l-1.965 1.963-1.963-1.962c0-0-0-0.001-0-0.001-0.055-0.055-0.128-0.083-0.201-0.083s-0.145 0.028-0.201 0.083c-0 0-0 0-0 0l-1.963 1.963-1.964-1.963c-0.111-0.111-0.29-0.111-0.402 0l-1.963 1.963-1.964-1.963c-0.111-0.111-0.29-0.111-0.402 0l-1.965 1.963-1.88-1.88v-28.909h20.603v4.522c0 0.157 0.127 0.284 0.284 0.284h4.521l0 24.103z"></path>
<path d="M6.314 3.234h9.303c0.157 0 0.284-0.127 0.284-0.284s-0.127-0.284-0.284-0.284h-9.303c-0.157 0-0.284 0.127-0.284 0.284s0.127 0.284 0.284 0.284z"></path>
<path d="M6.314 4.991h14.919c0.157 0 0.284-0.127 0.284-0.284s-0.127-0.284-0.284-0.284h-14.919c-0.157 0-0.284 0.127-0.284 0.284s0.127 0.284 0.284 0.284z"></path>
<path d="M6.030 6.568v9.199c0 0.157 0.127 0.284 0.284 0.284h21.172c0.157 0 0.284-0.127 0.284-0.284v-9.199c0-0.157-0.127-0.284-0.284-0.284h-21.172c-0.157 0-0.284 0.127-0.284 0.284zM12.308 6.852h14.893v2.445h-14.893v-2.445zM12.308 9.865h14.893v2.444h-14.893v-2.444zM12.308 12.877h14.893v2.605h-14.893v-2.605zM6.598 6.852h5.142v2.445h-5.142v-2.445zM6.598 9.865h5.142v2.444h-5.142v-2.444zM6.598 12.877h5.142v2.605h-5.142v-2.605z"></path>
<path d="M27.486 17.329h-21.172c-0.157 0-0.284 0.127-0.284 0.284v9.198c0 0.157 0.127 0.284 0.284 0.284s0.284-0.127 0.284-0.284v-2.889h5.142v2.889c0 0.157 0.127 0.284 0.284 0.284s0.284-0.127 0.284-0.284v-2.889h14.893v2.889c0 0.157 0.127 0.284 0.284 0.284s0.284-0.127 0.284-0.284v-9.198c0.001-0.157-0.126-0.284-0.283-0.284zM11.74 23.354h-5.142v-2.443h5.142v2.443zM11.74 20.342h-5.142v-2.444h5.142v2.444zM27.201 23.354h-14.893v-2.443h14.893v2.443zM27.201 20.342h-14.893v-2.444h14.893v2.444z"></path>
<path d="M2.281-0.021c-0.157 0-0.284 0.127-0.284 0.284v29.311c0 0.157 0.127 0.284 0.284 0.284s0.284-0.127 0.284-0.284v-29.311c0-0.157-0.127-0.284-0.284-0.284z"></path>
<path d="M0.718-0.021c-0.157 0-0.284 0.127-0.284 0.284v29.311c0 0.157 0.127 0.284 0.284 0.284s0.284-0.127 0.284-0.284v-29.311c0-0.157-0.127-0.284-0.284-0.284z"></path>
</symbol>
<symbol id="icon-arrow-right2" viewBox="0 0 32 32">
<title>arrow-right2</title>
<path d="M19.414 27.414l10-10c0.781-0.781 0.781-2.047 0-2.828l-10-10c-0.781-0.781-2.047-0.781-2.828 0s-0.781 2.047 0 2.828l6.586 6.586h-19.172c-1.105 0-2 0.895-2 2s0.895 2 2 2h19.172l-6.586 6.586c-0.39 0.39-0.586 0.902-0.586 1.414s0.195 1.024 0.586 1.414c0.781 0.781 2.047 0.781 2.828 0z"></path>
</symbol>
</defs>
</svg>
